<svg version="1.1" id="Layer_1" xmlns="http://www.w3.org/2000/svg" x="0" y="0" viewBox="0 0 256 256" style="enable-background:new 0 0 256 256" xml:space="preserve"><style>.st0{fill:#382b73}.st2{fill:#bbbdbf}.st3{fill:#fff}.st4{fill:#d0d2d3}.st5{fill:#106ea0}.st6{fill:#1cade3}.st8{fill:#e43d91}.st11{fill:#e7ad27}.st12{fill:#e6e7e8}</style><switch><g><circle class="st0" cx="128" cy="128" r="120"/><circle cx="128" cy="128" r="102.5" style="fill:#473080"/><path class="st0" d="M195.915 130.019v-9.612c0-6.651-5.39-12.045-12.045-12.045h-22.733v-27.65c0-6.652-5.393-12.045-12.045-12.045H72.129c-6.652 0-12.045 5.393-12.045 12.045V161.638l18.951-16.525h15.828v27.65c0 5.758 4.043 10.565 9.442 11.755a24.196 24.196 0 0 0-.351 4.074c0 13.28 10.766 24.045 24.045 24.045s24.045-10.766 24.045-24.045c0-1.288-.104-2.551-.299-3.784h25.218l18.951 16.525V130.043c.002-.008.001-.016.001-.024z"/><g><path class="st2" d="M106.908 110.998h76.962c6.652 0 12.045 5.393 12.045 12.045V194.333l-18.951-16.525h-70.057c-6.652 0-12.045-5.393-12.045-12.045v-42.72c.001-6.652 5.394-12.045 12.046-12.045z"/><path class="st3" d="M195.915 113.406v42.718c0 6.657-5.39 12.045-12.045 12.045h-76.961c-6.651 0-12.045-5.387-12.045-12.045v-42.718c0-6.651 5.394-12.044 12.045-12.044h76.961c6.654 0 12.045 5.393 12.045 12.044z"/><path class="st3" d="m176.965 168.172 18.951 16.525v-40.294h-18.951z"/><path class="st4" d="M113.344 124.064h61.363a2.733 2.733 0 0 0 2.733-2.733v-.157a2.733 2.733 0 0 0-2.733-2.733h-61.363a2.733 2.733 0 0 0-2.733 2.733v.157a2.733 2.733 0 0 0 2.733 2.733zM113.344 138.605h61.363a2.733 2.733 0 0 0 2.733-2.733v-.157a2.733 2.733 0 0 0-2.733-2.733h-61.363a2.733 2.733 0 0 0-2.733 2.733v.157a2.733 2.733 0 0 0 2.733 2.733zM113.344 153.145h61.363a2.733 2.733 0 0 0 2.733-2.733v-.157a2.733 2.733 0 0 0-2.733-2.733h-61.363a2.733 2.733 0 0 0-2.733 2.733v.157a2.733 2.733 0 0 0 2.733 2.733z"/><path class="st4" d="M161.136 101.362v30.978c0 6.651-5.39 12.045-12.044 12.045H94.864v-30.978c0-6.651 5.394-12.044 12.045-12.044h54.227z"/><path class="st2" d="M161.118 132.981h-47.774a2.733 2.733 0 0 0-2.733 2.733v.157a2.733 2.733 0 0 0 2.733 2.733h46.036a11.968 11.968 0 0 0 1.738-5.623z"/><g><path class="st5" d="M149.092 71.303H72.129c-6.652 0-12.045 5.393-12.045 12.045V154.638l18.951-16.525h70.057c6.652 0 12.045-5.393 12.045-12.045v-42.72c0-6.653-5.393-12.045-12.045-12.045z"/><path class="st6" d="M149.092 128.477H72.129c-6.652 0-12.045-5.393-12.045-12.045v-42.72c0-6.652 5.393-12.045 12.045-12.045h76.962c6.652 0 12.045 5.393 12.045 12.045v42.72c.001 6.652-5.392 12.045-12.044 12.045z"/><path class="st6" d="m79.035 128.477-18.951 16.525v-40.294h18.951z"/><path class="st5" d="M142.656 84.369H81.293a2.733 2.733 0 0 1-2.733-2.733v-.157a2.733 2.733 0 0 1 2.733-2.733h61.363a2.733 2.733 0 0 1 2.733 2.733v.157a2.733 2.733 0 0 1-2.733 2.733zM142.656 98.909H81.293a2.733 2.733 0 0 1-2.733-2.733v-.157a2.733 2.733 0 0 1 2.733-2.733h61.363a2.733 2.733 0 0 1 2.733 2.733v.157a2.732 2.732 0 0 1-2.733 2.733zM142.656 113.45H81.293a2.733 2.733 0 0 1-2.733-2.733v-.157a2.733 2.733 0 0 1 2.733-2.733h61.363a2.733 2.733 0 0 1 2.733 2.733v.157a2.733 2.733 0 0 1-2.733 2.733z"/></g><g><circle transform="rotate(-37.99 128 181.595)" cx="128" cy="181.593" style="fill:#ef5a9d" r="24.045"/><path class="st8" d="M136.956 183.415c.027.042.062.079.088.122v-4.999c0-.622-.433-1.139-1.014-1.274.008.002.017.001.025.003v-1.703c0-4.441-3.613-8.054-8.054-8.054-4.441 0-8.054 3.613-8.054 8.054v1.703c.008-.002.017-.001.025-.003a1.31 1.31 0 0 0-1.014 1.274v4.999c.026-.043.061-.079.088-.122a10.55 10.55 0 0 0-1.66 5.683c0 5.863 4.753 10.616 10.616 10.616 5.863 0 10.616-4.753 10.616-10.616a10.577 10.577 0 0 0-1.662-5.683zm-14.388-7.852a5.438 5.438 0 0 1 5.432-5.432 5.438 5.438 0 0 1 5.432 5.432v1.703c.008-.002.017-.001.025-.003a1.31 1.31 0 0 0-1.014 1.274v.917c.058.027.109.064.166.092-1.396-.675-2.955-1.064-4.609-1.064s-3.213.389-4.608 1.064c.057-.028.108-.065.166-.092v-.917a1.31 1.31 0 0 0-1.014-1.274c.008.002.017.001.025.003v-1.703zm11.138 4.592.029.019-.054-.033.025.014zm1.272.951c.055.048.107.098.16.146.013.012.024.026.037.039-.078-.072-.154-.144-.234-.213.012.01.026.018.037.028zm-12.684-.951.025-.014-.054.033.029-.019zm-1.432 1.098c.054-.049.106-.099.16-.146.012-.01.025-.018.036-.028-.08.069-.157.141-.234.213l.038-.039zm15.191.939c.032.037.068.071.099.109-.032-.037-.067-.071-.099-.109zm-16.105 0c-.032.037-.068.071-.099.109.031-.037.067-.071.099-.109z"/><path d="M128 165.583c-4.441 0-8.054 3.613-8.054 8.054v1.703c.103-.026.211-.04.322-.04h1.979c.111 0 .219.014.322.04v-1.703a5.438 5.438 0 0 1 5.432-5.432 5.438 5.438 0 0 1 5.432 5.432v1.703c.103-.026.211-.04.322-.04h1.979c.111 0 .219.014.322.04v-1.703c-.002-4.441-3.615-8.054-8.056-8.054z" style="fill:#fede3a"/><path d="M128 166.894a6.743 6.743 0 0 0-6.743 6.743v1.663h.989c.111 0 .219.014.322.04v-1.703a5.438 5.438 0 0 1 5.432-5.432 5.438 5.438 0 0 1 5.432 5.432v1.703c.103-.026.211-.04.322-.04h.989v-1.663a6.743 6.743 0 0 0-6.743-6.743z" style="fill:#f7cb15"/><path class="st11" d="M120.268 175.301h1.979c.111 0 .219.014.322.04v-.536h-2.622v.536c.102-.027.21-.04.321-.04zM133.754 175.301h1.979c.111 0 .219.014.322.04v-.536h-2.622v.536c.102-.027.21-.04.321-.04z"/><g><circle transform="rotate(-45.001 127.999 187.175)" class="st12" cx="128" cy="187.173" r="10.616"/><path class="st12" d="M137.044 181.611v-4.999c0-.724-.587-1.311-1.311-1.311h-1.979c-.724 0-1.311.587-1.311 1.311v.917a10.663 10.663 0 0 1 4.601 4.082zM123.557 177.529v-.917c0-.724-.587-1.311-1.311-1.311h-1.979c-.724 0-1.311.587-1.311 1.311v4.999a10.663 10.663 0 0 1 4.601-4.082z"/><path class="st3" d="M122.568 178.05v-1.76a.99.99 0 0 0-.99-.99h-.643a.99.99 0 0 0-.99.99v3.967a10.698 10.698 0 0 1 2.623-2.207zM136.054 180.257v-3.967a.99.99 0 0 0-.99-.99h-.643a.99.99 0 0 0-.99.99v1.76a10.661 10.661 0 0 1 2.623 2.207z"/><circle transform="rotate(-22.5 127.994 187.165)" class="st3" cx="128" cy="187.173" r="9.696"/></g><g><circle class="st8" cx="128" cy="184.653" r="2.768"/><path class="st8" d="M128 192.388c-.8 0-1.448-.648-1.448-1.448v-4.923h2.896v4.923c0 .8-.648 1.448-1.448 1.448z"/></g></g></g></g></switch></svg>